<?xml version="1.0" encoding="utf-8"?>
<!-- Generator: Adobe Illustrator 19.2.1, SVG Export Plug-In . SVG Version: 6.00 Build 0)  -->
<svg version="1.1" id="Режим_изоляции"
	 xmlns="http://www.w3.org/2000/svg" xmlns:xlink="http://www.w3.org/1999/xlink" x="0px" y="0px" viewBox="0 0 70 70"
	 style="enable-background:new 0 0 70 70;" xml:space="preserve">
<style type="text/css">
	.st0{fill:none;stroke:url(#SVGID_1_);stroke-linecap:round;stroke-linejoin:round;stroke-miterlimit:10;}
	.st1{fill:none;stroke:url(#SVGID_2_);stroke-width:2;stroke-linecap:round;stroke-linejoin:round;stroke-miterlimit:10;}
</style>
<linearGradient id="SVGID_1_" gradientUnits="userSpaceOnUse" x1="18.6772" y1="47.2626" x2="53.0922" y2="22.986" gradientTransform="matrix(0.9854 -0.1702 0.1702 0.9854 -5.2709 6.4421)">
	<stop  offset="0" style="stop-color:#1AC8C8"/>
	<stop  offset="1" style="stop-color:#36A9E1"/>
</linearGradient>
<path class="st0" d="M54,26c-3.1-7.3-10.3-12.3-18.3-12.5 M16,41.7C19,49,26,54,33.8,54.5c1.6,0.1,3.2,0,4.8-0.3"/>
<linearGradient id="SVGID_2_" gradientUnits="userSpaceOnUse" x1="10.6908" y1="58.3271" x2="59.3739" y2="9.644">
	<stop  offset="0" style="stop-color:#1AC8C8"/>
	<stop  offset="1" style="stop-color:#36A9E1"/>
</linearGradient>
<path class="st1" d="M26.3,38.6L21.4,37c0.9,7.5,7.8,12.8,15.3,11.9l0,0c6.8-0.9,11.8-6.5,12-13.1 M43.8,29.4l4.9,1.6
	c-0.9-7.5-7.8-12.8-15.3-11.9l0,0c-6.8,0.9-11.8,6.5-12,13.1 M7.5,34C7.5,18.8,19.9,6.5,35,6.5c12.2,0,22.6,8,26.2,19.1l3.1-9.6
	 M62.5,34c0,15.2-12.3,27.5-27.5,27.5c-12.2,0-22.6-8-26.2-19.1L5.8,52"/>
</svg>
